<svg width="24" height="24" viewBox="0 0 24 24" fill="none" xmlns="http://www.w3.org/2000/svg">
<path d="M8.75 1.25C6.817 1.25 5.25 2.817 5.25 4.75V19.25C5.25 21.183 6.817 22.75 8.75 22.75H15.25C17.183 22.75 18.75 21.183 18.75 19.25V4.75C18.75 2.817 17.183 1.25 15.25 1.25H8.75ZM11.5667 7.84989C11.8109 7.60564 12.2069 7.60564 12.4512 7.84989C12.6954 8.09413 12.6954 8.49014 12.4512 8.73439C12.2069 8.97863 11.8109 8.97863 11.5667 8.73439C11.3224 8.49014 11.3224 8.09413 11.5667 7.84989ZM10.4819 6.70765C11.3333 5.85621 12.7138 5.85621 13.5652 6.70765C13.7571 6.89957 13.9145 7.13451 14.0241 7.38454C14.1164 7.59531 14.0204 7.84104 13.8097 7.9334C13.5989 8.02576 13.3532 7.92977 13.2608 7.719C13.1919 7.56178 13.0926 7.41359 12.976 7.29691C12.45 6.7709 11.5971 6.7709 11.0711 7.29691C10.9552 7.41284 10.8606 7.55477 10.7911 7.71367C10.6988 7.92449 10.4531 8.02061 10.2423 7.92837C10.0315 7.83612 9.93536 7.59044 10.0276 7.37961C10.1376 7.12819 10.2902 6.89936 10.4819 6.70765ZM9.62949 5.46117C10.9521 4.1386 13.0964 4.1386 14.4189 5.46117C14.6674 5.70966 14.882 6.01028 15.0455 6.32987C15.1502 6.53474 15.0691 6.78578 14.8642 6.89056C14.6594 6.99535 14.4083 6.91422 14.3035 6.70934C14.1786 6.46505 14.0147 6.23545 13.8297 6.05042C12.8326 5.05329 11.2159 5.05329 10.2187 6.05042C10.025 6.2442 9.8677 6.46188 9.74657 6.70135C9.64271 6.9067 9.39204 6.98896 9.1867 6.8851C8.98135 6.78123 8.89909 6.53057 9.00295 6.32522C9.16378 6.00727 9.37306 5.7176 9.62949 5.46117ZM9.7002 11.2002H14.3002C15.1286 11.2002 15.8002 11.8718 15.8002 12.7002V18.3002C15.8002 19.1286 15.1286 19.8002 14.3002 19.8002H9.7002C8.87177 19.8002 8.2002 19.1286 8.2002 18.3002V12.7002C8.2002 11.8718 8.87177 11.2002 9.7002 11.2002ZM9.7002 12.5002C9.58974 12.5002 9.5002 12.5897 9.5002 12.7002V18.3002C9.5002 18.4107 9.58974 18.5002 9.7002 18.5002H14.3002C14.4107 18.5002 14.5002 18.4107 14.5002 18.3002V12.7002C14.5002 12.5897 14.4107 12.5002 14.3002 12.5002H9.7002Z" fill="#222222"/>
</svg>
