<svg width="24" height="24" viewBox="0 0 24 24" fill="none" xmlns="http://www.w3.org/2000/svg">
<path d="M14.7499 16.5001C16.0584 16.5001 16.568 17.0826 16.9552 18.3743L17.023 18.6116C17.2055 19.2688 17.3146 19.4658 17.5356 19.5569C17.7947 19.6636 17.9675 19.6485 18.2391 19.5089L18.386 19.4265C18.4388 19.3948 18.4965 19.3582 18.5616 19.3151L19.2248 18.8637C19.8407 18.4586 20.3941 18.1909 21.0679 18.0224C21.4698 17.922 21.877 18.1663 21.9775 18.5682C22.0779 18.97 21.8336 19.3772 21.4318 19.4777C21.0247 19.5794 20.6736 19.7334 20.2864 19.967L19.9878 20.1579L19.5088 20.4859C19.279 20.6421 19.1056 20.75 18.9249 20.8429C18.282 21.1734 17.655 21.2285 16.9641 20.9437C16.2193 20.6367 15.9189 20.1638 15.6378 19.222L15.4819 18.6802C15.3006 18.0909 15.177 18.0001 14.7499 18.0001C14.4405 18.0001 14.1203 18.1548 13.6815 18.523L13.4967 18.6839L12.5759 19.5593C11.1677 20.8829 9.96725 21.5256 8.24849 21.5256C6.56221 21.5256 5.10381 21.2716 3.87955 20.7567L6.82714 19.9525C7.27441 20.0011 7.74811 20.0256 8.24849 20.0256C9.43124 20.0256 10.2802 19.6106 11.3347 18.663L11.5929 18.4243L12.1248 17.9131C12.3614 17.6863 12.5387 17.5238 12.7173 17.374C13.4009 16.8004 14.0222 16.5001 14.7499 16.5001ZM19.0302 2.96973C20.4276 4.36719 20.4276 6.63293 19.0302 8.03039L18.742 8.3191C19.8935 9.72044 19.8519 11.2056 18.781 12.2796L16.7797 14.2809C16.4866 14.5735 16.0117 14.5731 15.7191 14.2799C15.4264 13.9868 15.4268 13.5119 15.72 13.2193L17.7187 11.2205C18.2038 10.7341 18.2598 10.1302 17.6789 9.38214L9.06186 17.9987C8.78498 18.2756 8.44064 18.4754 8.06288 18.5784L2.94719 19.9736C2.38732 20.1263 1.87359 19.6126 2.02628 19.0527L3.42147 13.937C3.52449 13.5593 3.72432 13.2149 4.0012 12.9381L13.9695 2.96973C15.367 1.57227 17.6327 1.57227 19.0302 2.96973ZM15.0302 4.03039L5.06186 13.9987C4.96956 14.091 4.90296 14.2058 4.86861 14.3317L3.81877 18.1811L7.6682 17.1313C7.79412 17.097 7.9089 17.0303 8.0012 16.9381L17.9695 6.96973C18.7812 6.15805 18.7812 4.84206 17.9695 4.03039C17.1578 3.21871 15.8419 3.21871 15.0302 4.03039Z" fill="#222222"/>
</svg>
