<svg width="24" height="24" viewBox="0 0 24 24" fill="none" xmlns="http://www.w3.org/2000/svg">
<g clip-path="url(#clip0_6193_228)">
<path d="M18.4941 4.25C20.2891 4.25 21.7441 5.70507 21.7441 7.5V15.5C21.7441 17.2949 20.2891 18.75 18.4941 18.75L5.49414 18.75C3.69921 18.75 2.24414 17.2949 2.24414 15.5V7.5C2.24414 5.70507 3.69921 4.25 5.49414 4.25H18.4941ZM8.23445 9.44343C8.54746 9.44344 8.84836 9.54819 9.06618 9.74183C9.27716 9.92937 9.43175 10.2187 9.43175 10.6408V11.3151H8.75743C8.55219 11.3151 8.38581 11.4815 8.38581 11.6867C8.38581 11.892 8.55219 12.0583 8.75743 12.0583H9.43175V12.361H8.75743C8.55219 12.361 8.38581 12.5274 8.38581 12.7326C8.38581 12.9379 8.55219 13.1043 8.75743 13.1043H9.43175V13.7786C9.43175 13.9838 9.59812 14.1502 9.80336 14.1502C10.0086 14.1502 10.175 13.9838 10.175 13.7786V13.1043H10.8493C11.0545 13.1043 11.2209 12.9379 11.2209 12.7326C11.2209 12.5274 11.0545 12.361 10.8493 12.361H10.175V12.0583H10.8493C11.0545 12.0583 11.2209 11.892 11.2209 11.6867C11.2209 11.4815 11.0545 11.3151 10.8493 11.3151H10.175V10.6408C10.175 10.017 9.93737 9.52182 9.55999 9.18634C9.18943 8.85693 8.70586 8.70021 8.23447 8.7002C7.76309 8.70018 7.27952 8.85688 6.90895 9.18629C6.53155 9.52177 6.29395 10.017 6.29395 10.6408C6.29395 10.846 6.46032 11.0124 6.66556 11.0124C6.87081 11.0124 7.03718 10.846 7.03718 10.6408C7.03718 10.2186 7.19178 9.92931 7.40274 9.74178C7.62055 9.54816 7.92145 9.44342 8.23445 9.44343ZM13.2441 9C12.9956 9 12.7941 9.20147 12.7941 9.45C12.7941 9.69853 12.9956 9.9 13.2441 9.9H17.2441C17.4927 9.9 17.6941 9.69853 17.6941 9.45C17.6941 9.20147 17.4927 9 17.2441 9H13.2441ZM13.2441 11C12.9956 11 12.7941 11.2015 12.7941 11.45C12.7941 11.6985 12.9956 11.9 13.2441 11.9H17.2441C17.4927 11.9 17.6941 11.6985 17.6941 11.45C17.6941 11.2015 17.4927 11 17.2441 11H13.2441ZM13.2441 13C12.9956 13 12.7941 13.2015 12.7941 13.45C12.7941 13.6985 12.9956 13.9 13.2441 13.9H17.2441C17.4927 13.9 17.6941 13.6985 17.6941 13.45C17.6941 13.2015 17.4927 13 17.2441 13H13.2441ZM0.994141 19.25C0.579927 19.25 0.244141 19.5858 0.244141 20C0.244141 20.4142 0.579927 20.75 0.994141 20.75H22.9941C23.4084 20.75 23.7441 20.4142 23.7441 20C23.7441 19.5858 23.4084 19.25 22.9941 19.25H0.994141Z" fill="#222222"/>
</g>
<defs>
<clipPath id="clip0_6193_228">
<rect width="24" height="24" fill="white" transform="translate(-0.00585938)"/>
</clipPath>
</defs>
</svg>
