<svg width="154" height="24" viewBox="0 0 154 24" fill="none" xmlns="http://www.w3.org/2000/svg">
<g clip-path="url(#clip0_16647_5158)">
<path d="M110.484 11.6523C111.145 11.49 111.663 11.1684 112.04 10.6872C112.417 10.2064 112.605 9.62961 112.605 8.95716C112.605 8.01831 112.232 7.27649 111.483 6.73168C110.736 6.18687 109.713 5.91425 108.415 5.91425H104.334C103.601 5.91425 103.007 6.50842 103.007 7.24135V16.7593C103.007 17.4922 103.601 18.0864 104.334 18.0864H108.571C109.962 18.0864 111.06 17.7879 111.866 17.1911C112.672 16.5943 113.074 15.7737 113.074 14.7303C113.074 13.9191 112.845 13.2409 112.388 12.6961C111.93 12.1513 111.295 11.8035 110.484 11.6527V11.6523ZM105.337 7.93115H108.292C108.895 7.91958 109.368 8.04144 109.71 8.29628C110.051 8.55111 110.223 8.91091 110.223 9.37433C110.223 9.84976 110.051 10.2207 109.71 10.4871C109.368 10.7539 108.895 10.8869 108.292 10.8869H105.337V7.9307V7.93115ZM110.031 15.6518C109.614 15.9418 109.034 16.081 108.292 16.069H105.337V12.8522H108.292C109.034 12.8406 109.614 12.9767 110.031 13.2609C110.449 13.5451 110.658 13.936 110.658 14.4346C110.658 14.9563 110.449 15.3619 110.031 15.6518Z" fill="black"/>
<path d="M139.271 5.91377H137.306C137.224 5.91377 137.158 5.98004 137.158 6.06143V14.3123L131.322 6.50395C131.044 6.13259 130.608 5.91333 130.143 5.91333C129.331 5.91333 128.672 6.57199 128.672 7.38453V17.9378C128.672 18.0196 128.739 18.0859 128.82 18.0859H130.802C130.883 18.0859 130.95 18.0196 130.95 17.9378V9.7043L136.742 17.4592C137.028 17.8417 137.472 18.0863 137.95 18.0859C138.761 18.0846 139.418 17.4268 139.418 16.6147V6.06143C139.418 5.9796 139.352 5.91377 139.27 5.91377H139.271Z" fill="black"/>
<path d="M153.286 17.8529L148.478 11.0608L152.932 6.16109C153.018 6.06592 152.95 5.91382 152.822 5.91382H150.474C150.433 5.91382 150.393 5.93161 150.365 5.96274L144.914 11.9828V6.06236C144.914 5.98053 144.848 5.91426 144.767 5.91426H142.732C142.65 5.91426 142.584 5.98053 142.584 6.06236V17.9387C142.584 18.0206 142.65 18.0864 142.732 18.0864H144.767C144.848 18.0864 144.914 18.0201 144.914 17.9387V14.9736L146.827 12.8696L150.608 18.0259C150.636 18.0637 150.68 18.0864 150.727 18.0864H153.166C153.286 18.0864 153.357 17.9512 153.287 17.8529H153.286Z" fill="black"/>
<path d="M55.157 5.91382C54.5202 5.91382 53.9429 6.28829 53.6836 6.87001L50.111 14.8776L46.505 6.86512C46.2444 6.28607 45.6685 5.91382 45.0338 5.91382H45.0303C44.139 5.91382 43.4168 6.63608 43.4168 7.52734V17.9378C43.4168 18.0197 43.483 18.0859 43.5644 18.0859H45.3901C45.4715 18.0859 45.5377 18.0197 45.5377 17.9378V9.35656L49.037 17.3775C49.1815 17.7088 49.4657 17.9672 49.817 18.0526C50.3738 18.1878 50.9222 17.8991 51.1392 17.3993L54.6318 9.35656V17.9378C54.6318 18.0197 54.6981 18.0859 54.7794 18.0859H56.6225C56.7043 18.0859 56.7701 18.0197 56.7701 17.9378V7.52734C56.7701 6.63608 56.0478 5.91382 55.1566 5.91382H55.157Z" fill="#72BF44"/>
<path d="M68.9164 16.0517H62.2653V12.9914H68.0296C68.1115 12.9914 68.1773 12.9251 68.1773 12.8438V11.1048C68.1773 11.023 68.111 10.9572 68.0296 10.9572H62.2653V7.94894H68.7079C68.7897 7.94894 68.8555 7.88267 68.8555 7.80084V6.0619C68.8555 5.98007 68.7892 5.91425 68.7079 5.91425H61.2625C60.5295 5.91425 59.9353 6.50842 59.9353 7.24135V16.7593C59.9353 17.4922 60.5295 18.0864 61.2625 18.0864H68.9164C68.9983 18.0864 69.0645 18.0201 69.0645 17.9383V16.1998C69.0645 16.1179 68.9983 16.0517 68.9164 16.0517Z" fill="#72BF44"/>
<path d="M86.5308 5.91382H84.4961C84.4143 5.91382 84.3485 5.98008 84.3485 6.06147V17.9378C84.3485 18.0197 84.4143 18.0859 84.4961 18.0859H86.5308C86.6127 18.0859 86.6785 18.0197 86.6785 17.9378V6.06147C86.6785 5.97964 86.6122 5.91382 86.5308 5.91382Z" fill="#72BF44"/>
<path d="M79.2513 14.0477C79.4612 13.9614 79.6627 13.86 79.8441 13.7404C80.3129 13.4313 80.7087 13.0177 81.0018 12.5391C81.4132 11.8671 81.6191 11.0555 81.6191 10.1046C81.6191 8.77172 81.1899 7.73992 80.3324 7.00922C79.4741 6.27895 78.2573 5.91382 76.6807 5.91382H72.9306C72.1977 5.91382 71.6035 6.50799 71.6035 7.24092V17.9383C71.6035 18.0201 71.6698 18.0859 71.7512 18.0859H73.7858C73.8677 18.0859 73.934 18.0201 73.934 17.9383V14.504H76.6811H76.6842L79.2668 18.0259C79.2949 18.0637 79.3389 18.0864 79.386 18.0864H81.825C81.9451 18.0864 82.0149 17.9512 81.9455 17.8529L79.2517 14.0477H79.2513ZM78.6976 11.8778C78.2337 12.2603 77.5613 12.452 76.6802 12.452H73.9331V7.94851H76.6802C77.5613 7.94851 78.2333 8.13396 78.6976 8.50488C79.161 8.87624 79.3931 9.43261 79.3931 10.1744C79.3931 10.9283 79.161 11.4962 78.6976 11.8782V11.8778Z" fill="#72BF44"/>
<path d="M31.081 17.9956L35.2532 8.48305L39.4248 17.9956C39.4484 18.0494 39.5018 18.0841 39.56 18.0841H41.5476C41.6539 18.0841 41.7259 17.9747 41.6828 17.8769L36.9125 7.00028C36.2783 5.55443 34.2271 5.55443 33.5929 7.00028L28.8231 17.8769C28.78 17.9747 28.8516 18.0841 28.9583 18.0841H30.9454C31.0041 18.0841 31.0575 18.0494 31.081 17.9956Z" fill="#72BF44"/>
<path d="M90.6714 17.9956L94.8431 8.48305L99.0147 17.9956C99.0383 18.0494 99.0917 18.0841 99.1504 18.0841H101.138C101.244 18.0841 101.316 17.9747 101.273 17.8769L96.5028 7.00028C95.8686 5.55443 93.8175 5.55443 93.1833 7.00028L88.4134 17.8769C88.3703 17.9747 88.4419 18.0841 88.5486 18.0841H90.5357C90.5944 18.0841 90.6474 18.0494 90.6714 17.9956Z" fill="#72BF44"/>
<path d="M116.337 17.9956L120.509 8.48305L124.681 17.9956C124.704 18.0494 124.758 18.0841 124.816 18.0841H126.804C126.91 18.0841 126.982 17.9747 126.939 17.8769L122.169 7.00028C121.535 5.55443 119.483 5.55443 118.849 7.00028L114.079 17.8769C114.036 17.9747 114.108 18.0841 114.215 18.0841H116.202C116.26 18.0841 116.313 18.0494 116.337 17.9956Z" fill="black"/>
<path fill-rule="evenodd" clip-rule="evenodd" d="M2.24865 24H21.7514C22.9909 24 23.9996 22.9913 23.9996 21.7514V2.24861C23.9996 1.00867 22.9914 0 21.7514 0H2.24865C1.00916 0 0.000488281 1.00867 0.000488281 2.24861V21.7514C0.000488281 22.9913 1.00872 24 2.24865 24ZM0.739203 2.24861C0.739203 1.41605 1.4161 0.739159 2.24865 0.739159H21.7514C22.584 0.739159 23.2613 1.41605 23.2613 2.24861V21.7514C23.2613 22.5839 22.5835 23.2608 21.7514 23.2608H2.24865C1.4161 23.2608 0.739203 22.5839 0.739203 21.7514V2.24861ZM11.9993 8.48307L7.82767 17.9956C7.8041 18.0494 7.75029 18.0841 7.69158 18.0841H5.70448C5.59819 18.0841 5.52658 17.9747 5.56928 17.8769L10.3396 7.00031C10.9738 5.55445 13.0249 5.55445 13.6591 7.00031L18.4294 17.8769C18.4725 17.9747 18.4005 18.0841 18.2942 18.0841H16.3067C16.2479 18.0841 16.1946 18.0494 16.171 17.9956L11.9993 8.48307Z" fill="#72BF44"/>
</g>
<defs>
<clipPath id="clip0_16647_5158">
<rect width="153.314" height="24" fill="white"/>
</clipPath>
</defs>
</svg>
