<svg width="24" height="24" viewBox="0 0 24 24" fill="none" xmlns="http://www.w3.org/2000/svg">
<g clip-path="url(#clip0_16647_6582)">
<path d="M7.82929 17.9943L12 8.48224L16.1708 17.9943C16.1933 18.0478 16.2467 18.0816 16.3058 18.0816H18.2927C18.3997 18.0816 18.47 17.9718 18.4278 17.8733L13.6576 6.99632C13.0244 5.54981 10.9728 5.54981 10.3368 6.99632L5.56663 17.8733C5.52441 17.9718 5.59477 18.0816 5.70171 18.0816H7.68858C7.74768 18.0816 7.80115 18.0478 7.82366 17.9943H7.82929Z" fill="#72BF44"/>
<path d="M21.7514 24H2.24859C1.0075 24 0 22.9925 0 21.7514V2.24881C0 1.00774 1.0075 0.000244141 2.24859 0.000244141H21.7514C22.9925 0.000244141 24 1.00774 24 2.24881V21.7514C24 22.9925 22.9925 24 21.7514 24ZM2.24859 0.740386C1.41557 0.740386 0.74015 1.41862 0.74015 2.24881V21.7514C0.74015 22.5844 1.41839 23.2598 2.24859 23.2598H21.7514C22.5844 23.2598 23.2599 22.5816 23.2599 21.7514V2.24881C23.2599 1.4158 22.5816 0.740386 21.7514 0.740386H2.24859Z" fill="#72BF44"/>
</g>
<defs>
<clipPath id="clip0_16647_6582">
<rect width="24" height="24" fill="white"/>
</clipPath>
</defs>
</svg>
