<svg width="24" height="24" viewBox="0 0 24 24" fill="none" xmlns="http://www.w3.org/2000/svg">
<path d="M13.7479 18.5002L21.3018 18.4997L21.402 18.4858L21.5008 18.4582L21.5611 18.4326C21.6403 18.3978 21.7146 18.3471 21.7798 18.2819L21.8205 18.2378L21.864 18.1814L21.9182 18.0913L21.9569 18.001L21.976 17.9369L21.9896 17.8729L21.999 17.7787L21.9995 10.2463C21.9995 9.83212 21.6637 9.49633 21.2495 9.49633C20.8698 9.49633 20.556 9.77849 20.5063 10.1446L20.4995 10.2463L20.499 15.9412L12.7802 8.22096C12.5139 7.95469 12.0973 7.93047 11.8036 8.14832L11.7195 8.22094L8.74903 11.1913L3.27935 5.72162C2.98646 5.42873 2.51159 5.42873 2.21869 5.72162C1.95243 5.98789 1.92822 6.40455 2.14608 6.69816L2.21869 6.78228L8.21869 12.7823C8.48496 13.0485 8.90161 13.0728 9.19522 12.8549L9.27934 12.7823L12.2498 9.81194L19.437 17.0002H13.7479C13.3682 17.0002 13.0545 17.2824 13.0048 17.6485L12.9979 17.7502C12.9979 18.1299 13.2801 18.4437 13.6462 18.4934L13.7479 18.5002Z" fill="#222222"/>
</svg>
