<svg width="24" height="23" viewBox="0 0 24 23" fill="none" xmlns="http://www.w3.org/2000/svg">
<path d="M7.66667 0H16.3333C16.8396 0 17.258 0.376205 17.3242 0.864306L17.3333 1V5.33333H19.6667C22.0599 5.33333 24 7.27343 24 9.66667V18.3333C24 20.7266 22.0599 22.6667 19.6667 22.6667H4.33333C1.9401 22.6667 0 20.7266 0 18.3333V9.66667C0 7.27343 1.9401 5.33333 4.33333 5.33333H6.66667V1C6.66667 0.493739 7.04287 0.0753454 7.53097 0.00912889L7.66667 0H16.3333H7.66667ZM19.6667 7.33333H4.33333C3.04467 7.33333 2 8.378 2 9.66667V18.3333C2 19.622 3.04467 20.6667 4.33333 20.6667H19.6667C20.9553 20.6667 22 19.622 22 18.3333V9.66667C22 8.378 20.9553 7.33333 19.6667 7.33333ZM15.3333 2H8.66667V5.33333H15.3333V2Z" fill="#555555"/>
</svg>
