<svg width="25" height="24" viewBox="0 0 25 24" fill="none" xmlns="http://www.w3.org/2000/svg">
<path d="M2.59277 2.09946C2.88564 1.80669 3.36045 1.80669 3.65332 2.09946L21.9678 20.4138L22.0186 20.4704C22.2589 20.765 22.2423 21.1997 21.9678 21.4743C21.6932 21.7489 21.2584 21.7654 20.9639 21.5251L20.9072 21.4743L18.9668 19.5339C17.1939 21.1342 14.846 22.1101 12.2695 22.1101C6.74678 22.1101 2.26969 17.6328 2.26953 12.1101C2.26953 9.53363 3.24334 7.18388 4.84375 5.41096L2.59277 3.16C2.29997 2.8671 2.29991 2.39232 2.59277 2.09946ZM5.90723 6.47442C4.57752 7.9745 3.76953 9.9479 3.76953 12.1101C3.76969 16.8044 7.57521 20.6101 12.2695 20.6101C14.4317 20.6101 16.4032 19.8001 17.9033 18.4704L5.90723 6.47442ZM12.2695 2.1102C17.7924 2.1102 22.2695 6.58732 22.2695 12.1101C22.2695 14.1508 21.6559 16.0476 20.6064 17.6296L19.5205 16.5437C20.3116 15.2527 20.7695 13.7351 20.7695 12.1101C20.7695 7.41574 16.964 3.61019 12.2695 3.61019C10.6443 3.61019 9.12608 4.06702 7.83496 4.85823L6.74902 3.7723C8.33118 2.72266 10.2286 2.1102 12.2695 2.1102Z" fill="#222222"/>
</svg>
