<svg width="24" height="24" viewBox="0 0 24 24" fill="none" xmlns="http://www.w3.org/2000/svg">
<path d="M9.51889 3.85229C9.24184 3.68782 8.92458 3.6001 8.60002 3.6001H5.40002L5.20277 3.60648C3.63787 3.70805 2.40002 5.00952 2.40002 6.6001V17.4001L2.40641 17.5973C2.50798 19.1623 3.80944 20.4001 5.40002 20.4001H13.2457C13.2151 20.201 13.2 20.0003 13.2 19.8001C13.2 19.5946 13.2207 19.394 13.26 19.2001H5.40002L5.22667 19.1919C4.31389 19.1046 3.60002 18.3357 3.60002 17.4001V8.9989L8.48574 9.0001L8.66925 8.99073C9.09408 8.94721 9.49191 8.75361 9.78918 8.44148L11.5404 6.6001H18.6L18.7734 6.60834C19.6862 6.69556 20.4 7.46446 20.4 8.4001V11.2817C20.8817 11.5603 21.2928 11.9474 21.6 12.4094V8.4001L21.5936 8.20285L21.5748 8.009C21.3831 6.53694 20.1243 5.4001 18.6 5.4001H11.6004L9.68002 3.9601L9.51889 3.85229ZM5.40002 4.8001H8.60002L8.69644 4.80789C8.7916 4.82339 8.88213 4.86168 8.96002 4.9201L10.4328 6.0253L8.92022 7.61389L8.84731 7.67892C8.74388 7.75703 8.61711 7.8001 8.48574 7.8001L3.60002 7.7989V6.6001L3.60826 6.42675C3.69549 5.51396 4.46439 4.8001 5.40002 4.8001ZM21 14.4001C21 15.7256 19.9255 16.8001 18.6 16.8001C17.2745 16.8001 16.2 15.7256 16.2 14.4001C16.2 13.0746 17.2745 12.0001 18.6 12.0001C19.9255 12.0001 21 13.0746 21 14.4001ZM22.8 19.8001C22.8 21.2943 21.6 22.8001 18.6 22.8001C15.6 22.8001 14.4 21.3 14.4 19.8001C14.4 18.806 15.2059 18.0001 16.2 18.0001H21C21.9941 18.0001 22.8 18.806 22.8 19.8001Z" fill="#222222"/>
</svg>
