<svg width="24" height="24" viewBox="0 0 24 24" fill="none" xmlns="http://www.w3.org/2000/svg">
<path d="M8.78201 7.7999C8.98362 6.75221 9.2574 5.81113 9.58486 5.01586C9.9472 4.13589 10.3635 3.46327 10.795 3.02C11.2247 2.57863 11.6316 2.3999 11.9999 2.3999C12.3682 2.3999 12.7751 2.57863 13.2048 3.02C13.6363 3.46327 14.0526 4.13589 14.4149 5.01586C14.7424 5.81113 15.0162 6.75221 15.2178 7.7999H8.78201ZM8.47525 4.55896C8.76034 3.8666 9.09222 3.2486 9.46854 2.73715C6.78119 3.46985 4.56332 5.34079 3.36498 7.7999H7.56134C7.77968 6.591 8.09037 5.49368 8.47525 4.55896ZM15.5246 4.55896C15.2395 3.8666 14.9076 3.2486 14.5313 2.73716C17.2186 3.46985 19.4365 5.34079 20.6348 7.7999H16.4385C16.2201 6.591 15.9094 5.49368 15.5246 4.55896ZM16.62 8.9999H21.1218C21.4321 9.94376 21.5999 10.9522 21.5999 11.9999C21.5999 12.036 21.5997 12.072 21.5993 12.108C20.6222 11.2921 19.3725 10.7999 17.9999 10.7999C17.5796 10.7999 17.1708 10.8461 16.7778 10.9336C16.7501 10.2702 16.6967 9.62368 16.62 8.9999ZM12.3152 16.1999C12.305 16.3415 12.2999 16.4844 12.2999 16.6285C12.2999 17.9359 12.7965 19.1909 13.671 20.4014C13.5189 20.6243 13.3629 20.8174 13.2048 20.9798C12.7751 21.4212 12.3682 21.5999 11.9999 21.5999C11.6316 21.5999 11.2247 21.4212 10.795 20.9798C10.3635 20.5365 9.9472 19.8639 9.58486 18.9839C9.2574 18.1887 8.98362 17.2476 8.78201 16.1999H12.3152ZM12.5262 14.9999C12.9858 13.3853 14.1114 12.0493 15.5911 11.3431C15.5693 10.529 15.5073 9.74415 15.4104 8.9999H8.58942C8.46674 9.94249 8.3999 10.9503 8.3999 11.9999C8.3999 13.0495 8.46674 14.0573 8.58942 14.9999H12.5262ZM3.36498 16.1999C4.56332 18.659 6.78119 20.5299 9.46854 21.2626C9.09222 20.7512 8.76034 20.1332 8.47525 19.4408C8.09037 18.5061 7.77968 17.4088 7.56134 16.1999H3.36498ZM7.37986 14.9999H2.87796C2.56773 14.056 2.3999 13.0476 2.3999 11.9999C2.3999 10.9522 2.56773 9.94376 2.87796 8.9999H7.37986C7.26242 9.95379 7.1999 10.9609 7.1999 11.9999C7.1999 13.0389 7.26242 14.046 7.37986 14.9999ZM17.9999 11.9999C20.4852 11.9999 22.4999 14.0722 22.4999 16.6285C22.4999 18.5443 21.0801 20.5523 18.2999 22.697C18.1221 22.8342 17.8777 22.8342 17.6999 22.697C14.9197 20.5523 13.4999 18.5443 13.4999 16.6285C13.4999 14.0722 15.5146 11.9999 17.9999 11.9999ZM17.9999 15.0856C17.1715 15.0856 16.4999 15.7764 16.4999 16.6285C16.4999 17.4806 17.1715 18.1713 17.9999 18.1713C18.8283 18.1713 19.4999 17.4806 19.4999 16.6285C19.4999 15.7764 18.8283 15.0856 17.9999 15.0856Z" fill="#222222"/>
</svg>
