<svg width="24" height="24" viewBox="0 0 24 24" fill="none" xmlns="http://www.w3.org/2000/svg">
<path d="M11.9999 21.5999C12.8265 21.5999 13.6287 21.4954 14.394 21.299C13.9593 20.8094 13.5836 20.3126 13.2753 19.8081C12.8456 20.2102 12.4078 20.3999 11.9999 20.3999C11.2117 20.3999 10.3118 19.6916 9.57376 18.1101C9.31278 17.5509 9.08597 16.9082 8.90314 16.1999H12.3152C12.3447 15.7872 12.4164 15.3856 12.5262 14.9999H8.6473C8.48804 14.0702 8.3999 13.0599 8.3999 11.9999C8.3999 10.9399 8.48804 9.92957 8.6473 8.9999H15.3525C15.4786 9.73593 15.5601 10.5225 15.5886 11.3443C15.962 11.1658 16.3581 11.0275 16.7717 10.9349C16.7361 10.2679 16.6674 9.62031 16.5687 8.9999H19.8483C20.1282 9.73172 20.3087 10.5127 20.3733 11.3263C20.8159 11.5338 21.2274 11.7974 21.5993 12.108C21.5997 12.072 21.5999 12.036 21.5999 11.9999C21.5999 6.69797 17.3018 2.3999 11.9999 2.3999C6.69797 2.3999 2.3999 6.69797 2.3999 11.9999C2.3999 17.3018 6.69797 21.5999 11.9999 21.5999ZM11.9999 3.5999C12.7881 3.5999 13.688 4.3082 14.426 5.88967C14.687 6.44893 14.9138 7.09164 15.0967 7.7999H8.90314C9.08597 7.09164 9.31278 6.44893 9.57376 5.88967C10.3118 4.3082 11.2117 3.5999 11.9999 3.5999ZM8.48634 5.38221C8.15467 6.09294 7.87788 6.90825 7.66708 7.7999H4.72367C5.72744 6.06469 7.33409 4.72187 9.2572 4.05786C8.96746 4.45456 8.70984 4.9033 8.48634 5.38221ZM7.43108 8.9999C7.28058 9.94589 7.1999 10.9551 7.1999 11.9999C7.1999 13.0447 7.28058 14.0539 7.43108 14.9999H4.15146C3.79512 14.0682 3.5999 13.0569 3.5999 11.9999C3.5999 10.9429 3.79512 9.93158 4.15146 8.9999H7.43108ZM7.66708 16.1999C7.87788 17.0916 8.15467 17.9069 8.48634 18.6176C8.70984 19.0965 8.96746 19.5452 9.2572 19.9419C7.33409 19.2779 5.72744 17.9351 4.72367 16.1999H7.66708ZM14.7426 4.05786C16.6657 4.72187 18.2724 6.06469 19.2761 7.7999H16.3327C16.1219 6.90825 15.8451 6.09294 15.5135 5.38221C15.29 4.9033 15.0323 4.45456 14.7426 4.05786ZM17.9999 11.9999C20.4852 11.9999 22.4999 14.0722 22.4999 16.6285C22.4999 18.5443 21.0801 20.5523 18.2999 22.697C18.1221 22.8342 17.8777 22.8342 17.6999 22.697C14.9197 20.5523 13.4999 18.5443 13.4999 16.6285C13.4999 14.0722 15.5146 11.9999 17.9999 11.9999ZM17.9999 15.0856C17.1715 15.0856 16.4999 15.7764 16.4999 16.6285C16.4999 17.4806 17.1715 18.1713 17.9999 18.1713C18.8283 18.1713 19.4999 17.4806 19.4999 16.6285C19.4999 15.7764 18.8283 15.0856 17.9999 15.0856Z" fill="#222222"/>
</svg>
