<svg width="24" height="24" viewBox="0 0 24 24" fill="none" xmlns="http://www.w3.org/2000/svg">
<path d="M16.5 12.7002C18.7091 12.7002 20.4999 14.4912 20.5 16.7002C20.5 18.9093 18.7091 20.7002 16.5 20.7002C14.2909 20.7002 12.5 18.9093 12.5 16.7002C12.5001 14.4912 14.2909 12.7002 16.5 12.7002ZM16.5 14.2002C15.1194 14.2002 14.0001 15.3196 14 16.7002C14 18.0809 15.1193 19.2002 16.5 19.2002C17.8807 19.2002 19 18.0809 19 16.7002C18.9999 15.3196 17.8806 14.2002 16.5 14.2002ZM17.4092 5.46973C17.7021 5.17702 18.1769 5.17693 18.4697 5.46973C18.7625 5.76256 18.7624 6.23738 18.4697 6.53027L6.53027 18.4697C6.23739 18.7625 5.76261 18.7625 5.46973 18.4697C5.17689 18.1768 5.1769 17.7021 5.46973 17.4092L17.4092 5.46973ZM7.5 3.2998C9.70906 3.2998 11.4999 5.09078 11.5 7.2998C11.5 9.50894 9.70914 11.2998 7.5 11.2998C5.29086 11.2998 3.5 9.50894 3.5 7.2998C3.50013 5.09078 5.29094 3.2998 7.5 3.2998ZM7.5 4.7998C6.11937 4.7998 5.00013 5.9192 5 7.2998C5 8.68052 6.11929 9.7998 7.5 9.7998C8.88071 9.7998 10 8.68052 10 7.2998C9.99987 5.9192 8.88063 4.7998 7.5 4.7998Z" fill="#222222"/>
</svg>
