<svg width="24" height="24" viewBox="0 0 24 24" fill="none" xmlns="http://www.w3.org/2000/svg">
<path fill-rule="evenodd" clip-rule="evenodd" d="M5.25 4.75C5.25 2.817 6.817 1.25 8.75 1.25H15.25C17.183 1.25 18.75 2.817 18.75 4.75V19.25C18.75 21.183 17.183 22.75 15.25 22.75H8.75C6.817 22.75 5.25 21.183 5.25 19.25V4.75ZM8.75 2.75C7.64543 2.75 6.75 3.64543 6.75 4.75V19.25C6.75 20.3546 7.64543 21.25 8.75 21.25H15.25C16.3546 21.25 17.25 20.3546 17.25 19.25V4.75C17.25 3.64543 16.3546 2.75 15.25 2.75H8.75ZM9.25 19C9.25 18.5858 9.58579 18.25 10 18.25H14C14.4142 18.25 14.75 18.5858 14.75 19C14.75 19.4142 14.4142 19.75 14 19.75H10C9.58579 19.75 9.25 19.4142 9.25 19Z" fill="#222222"/>
</svg>
