<svg width="24" height="24" viewBox="0 0 24 24" fill="none" xmlns="http://www.w3.org/2000/svg">
<path fill-rule="evenodd" clip-rule="evenodd" d="M7.75 3.3C7.75 2.16782 8.66782 1.25 9.8 1.25H14.2C15.3322 1.25 16.25 2.16782 16.25 3.3V4.39494C17.6957 4.82521 18.75 6.16449 18.75 7.75V19.25C18.75 21.183 17.183 22.75 15.25 22.75H8.75C6.817 22.75 5.25 21.183 5.25 19.25V7.75C5.25 6.16449 6.30426 4.82521 7.75 4.39494V3.3ZM9.8 2.75C9.49624 2.75 9.25 2.99624 9.25 3.3V8.7C9.25 9.00376 9.49624 9.25 9.8 9.25H14.2C14.5038 9.25 14.75 9.00376 14.75 8.7V3.3C14.75 2.99624 14.5038 2.75 14.2 2.75H9.8ZM10.1504 12.5498C10.1504 12.964 9.8146 13.2998 9.40039 13.2998C8.98618 13.2998 8.65039 12.964 8.65039 12.5498C8.65039 12.1356 8.98618 11.7998 9.40039 11.7998C9.8146 11.7998 10.1504 12.1356 10.1504 12.5498ZM12.7504 12.5498C12.7504 12.964 12.4146 13.2998 12.0004 13.2998C11.5862 13.2998 11.2504 12.964 11.2504 12.5498C11.2504 12.1356 11.5862 11.7998 12.0004 11.7998C12.4146 11.7998 12.7504 12.1356 12.7504 12.5498ZM14.6004 13.2998C15.0146 13.2998 15.3504 12.964 15.3504 12.5498C15.3504 12.1356 15.0146 11.7998 14.6004 11.7998C14.1862 11.7998 13.8504 12.1356 13.8504 12.5498C13.8504 12.964 14.1862 13.2998 14.6004 13.2998ZM10.1504 15.7498C10.1504 16.164 9.8146 16.4998 9.40039 16.4998C8.98618 16.4998 8.65039 16.164 8.65039 15.7498C8.65039 15.3356 8.98618 14.9998 9.40039 14.9998C9.8146 14.9998 10.1504 15.3356 10.1504 15.7498ZM12.0004 16.4998C12.4146 16.4998 12.7504 16.164 12.7504 15.7498C12.7504 15.3356 12.4146 14.9998 12.0004 14.9998C11.5862 14.9998 11.2504 15.3356 11.2504 15.7498C11.2504 16.164 11.5862 16.4998 12.0004 16.4998ZM15.3504 15.7498C15.3504 16.164 15.0146 16.4998 14.6004 16.4998C14.1862 16.4998 13.8504 16.164 13.8504 15.7498C13.8504 15.3356 14.1862 14.9998 14.6004 14.9998C15.0146 14.9998 15.3504 15.3356 15.3504 15.7498ZM9.40039 19.6998C9.8146 19.6998 10.1504 19.364 10.1504 18.9498C10.1504 18.5356 9.8146 18.1998 9.40039 18.1998C8.98618 18.1998 8.65039 18.5356 8.65039 18.9498C8.65039 19.364 8.98618 19.6998 9.40039 19.6998ZM12.7504 18.9498C12.7504 19.364 12.4146 19.6998 12.0004 19.6998C11.5862 19.6998 11.2504 19.364 11.2504 18.9498C11.2504 18.5356 11.5862 18.1998 12.0004 18.1998C12.4146 18.1998 12.7504 18.5356 12.7504 18.9498ZM14.6004 19.6998C15.0146 19.6998 15.3504 19.364 15.3504 18.9498C15.3504 18.5356 15.0146 18.1998 14.6004 18.1998C14.1862 18.1998 13.8504 18.5356 13.8504 18.9498C13.8504 19.364 14.1862 19.6998 14.6004 19.6998Z" fill="#222222"/>
</svg>
