<svg width="24" height="24" viewBox="0 0 24 24" fill="none" xmlns="http://www.w3.org/2000/svg">
<path fill-rule="evenodd" clip-rule="evenodd" d="M7.74414 3.3C7.74414 2.16782 8.66196 1.25 9.79414 1.25H14.1941C15.3263 1.25 16.2441 2.16782 16.2441 3.3V4.39494C17.6899 4.82521 18.7441 6.16449 18.7441 7.75V19.25C18.7441 21.183 17.1771 22.75 15.2441 22.75H8.74414C6.81114 22.75 5.24414 21.183 5.24414 19.25V7.75C5.24414 6.16449 6.2984 4.82521 7.74414 4.39494V3.3ZM7.74414 6.01756C7.14634 6.36337 6.74414 7.00972 6.74414 7.75V19.25C6.74414 20.3546 7.63957 21.25 8.74414 21.25H15.2441C16.3487 21.25 17.2441 20.3546 17.2441 19.25V7.75C17.2441 7.00972 16.8419 6.36337 16.2441 6.01756V8.7C16.2441 9.83218 15.3263 10.75 14.1941 10.75H9.79414C8.66196 10.75 7.74414 9.83218 7.74414 8.7V6.01756ZM9.79414 2.75C9.49038 2.75 9.24414 2.99624 9.24414 3.3V8.7C9.24414 9.00376 9.49038 9.25 9.79414 9.25H14.1941C14.4979 9.25 14.7441 9.00376 14.7441 8.7V3.3C14.7441 2.99624 14.4979 2.75 14.1941 2.75H9.79414ZM9.39453 13.2998C9.80874 13.2998 10.1445 12.964 10.1445 12.5498C10.1445 12.1356 9.80874 11.7998 9.39453 11.7998C8.98032 11.7998 8.64453 12.1356 8.64453 12.5498C8.64453 12.964 8.98032 13.2998 9.39453 13.2998ZM11.9945 13.2998C12.4087 13.2998 12.7445 12.964 12.7445 12.5498C12.7445 12.1356 12.4087 11.7998 11.9945 11.7998C11.5803 11.7998 11.2445 12.1356 11.2445 12.5498C11.2445 12.964 11.5803 13.2998 11.9945 13.2998ZM15.3445 12.5498C15.3445 12.964 15.0087 13.2998 14.5945 13.2998C14.1803 13.2998 13.8445 12.964 13.8445 12.5498C13.8445 12.1356 14.1803 11.7998 14.5945 11.7998C15.0087 11.7998 15.3445 12.1356 15.3445 12.5498ZM9.39453 16.4998C9.80874 16.4998 10.1445 16.164 10.1445 15.7498C10.1445 15.3356 9.80874 14.9998 9.39453 14.9998C8.98032 14.9998 8.64453 15.3356 8.64453 15.7498C8.64453 16.164 8.98032 16.4998 9.39453 16.4998ZM12.7445 15.7498C12.7445 16.164 12.4087 16.4998 11.9945 16.4998C11.5803 16.4998 11.2445 16.164 11.2445 15.7498C11.2445 15.3356 11.5803 14.9998 11.9945 14.9998C12.4087 14.9998 12.7445 15.3356 12.7445 15.7498ZM14.5945 16.4998C15.0087 16.4998 15.3445 16.164 15.3445 15.7498C15.3445 15.3356 15.0087 14.9998 14.5945 14.9998C14.1803 14.9998 13.8445 15.3356 13.8445 15.7498C13.8445 16.164 14.1803 16.4998 14.5945 16.4998ZM10.1445 18.9498C10.1445 19.364 9.80874 19.6998 9.39453 19.6998C8.98032 19.6998 8.64453 19.364 8.64453 18.9498C8.64453 18.5356 8.98032 18.1998 9.39453 18.1998C9.80874 18.1998 10.1445 18.5356 10.1445 18.9498ZM11.9945 19.6998C12.4087 19.6998 12.7445 19.364 12.7445 18.9498C12.7445 18.5356 12.4087 18.1998 11.9945 18.1998C11.5803 18.1998 11.2445 18.5356 11.2445 18.9498C11.2445 19.364 11.5803 19.6998 11.9945 19.6998ZM15.3445 18.9498C15.3445 19.364 15.0087 19.6998 14.5945 19.6998C14.1803 19.6998 13.8445 19.364 13.8445 18.9498C13.8445 18.5356 14.1803 18.1998 14.5945 18.1998C15.0087 18.1998 15.3445 18.5356 15.3445 18.9498Z" fill="#222222"/>
</svg>
