<svg width="24" height="24" viewBox="0 0 24 24" fill="none" xmlns="http://www.w3.org/2000/svg">
<path fill-rule="evenodd" clip-rule="evenodd" d="M16.0556 3.88409C16.3378 2.61395 15.0199 1.58493 13.8561 2.16681L13.2803 2.4547C12.4537 2.868 11.5066 2.97197 10.61 2.74783C9.18732 2.39216 7.91297 3.7097 8.31584 5.11975L8.38766 5.37113H7.41984C6.30337 5.37113 5.39829 6.27622 5.39829 7.39269C5.39829 8.38712 6.11631 9.21385 7.0622 9.38271L4.68841 13.581C2.6552 17.1769 5.42454 21.4287 9.56146 21.4287H14.6017C18.7386 21.4287 21.508 17.1769 19.4748 13.581L17.1011 9.38291C18.0475 9.2145 18.7661 8.38751 18.7661 7.39269C18.7661 6.27622 17.861 5.37113 16.7446 5.37113H15.7251L16.0556 3.88409ZM15.3956 9.41424H8.76754L5.99414 14.3193C4.5884 16.8054 6.44474 19.9287 9.56146 19.9287H14.6017C17.7184 19.9287 19.5748 16.8054 18.169 14.3193L15.3956 9.41424ZM14.1885 5.37113H9.94769L9.75813 4.70767C9.67242 4.40768 9.94353 4.12738 10.2462 4.20305C11.4901 4.51403 12.8043 4.36977 13.9512 3.79635L14.5269 3.50845C14.5364 3.50372 14.5421 3.5025 14.5443 3.50213C14.5467 3.50172 14.5486 3.5017 14.5507 3.50195C14.5555 3.50253 14.5647 3.50524 14.575 3.51325C14.5853 3.52127 14.5901 3.52961 14.5918 3.53409C14.5926 3.53603 14.593 3.53791 14.5932 3.54034C14.5934 3.54258 14.5936 3.54837 14.5913 3.55869L14.1885 5.37113ZM15.2237 13.1733C15.4434 12.9537 15.4434 12.5976 15.2237 12.378C15.0041 12.1584 14.648 12.1584 14.4284 12.378L11.4493 15.3572L10.3473 14.2552C10.1277 14.0355 9.77157 14.0355 9.55195 14.2552C9.33233 14.4748 9.33233 14.8309 9.55195 15.0505L11.0516 16.5502C11.1571 16.6556 11.3001 16.7149 11.4493 16.7149C11.5984 16.7149 11.7415 16.6556 11.847 16.5502L15.2237 13.1733ZM7.41984 6.87113C7.1318 6.87113 6.89829 7.10464 6.89829 7.39269C6.89829 7.68074 7.1318 7.91424 7.41984 7.91424H16.7446C17.0326 7.91424 17.2661 7.68074 17.2661 7.39269C17.2661 7.10464 17.0326 6.87113 16.7446 6.87113H7.41984Z" fill="#222222"/>
</svg>
