<svg width="24" height="24" viewBox="0 0 24 24" fill="none" xmlns="http://www.w3.org/2000/svg">
<path d="M14.398 20C14.8399 20 15.198 19.6418 15.198 19.2C15.198 18.7582 14.8399 18.4 14.398 18.4H7.73138C6.55317 18.4 5.59805 17.4449 5.59805 16.2667V7.73333C5.59805 6.55513 6.55317 5.6 7.73138 5.6H14.398C14.8399 5.6 15.198 5.24183 15.198 4.8C15.198 4.35817 14.8399 4 14.398 4H7.73138C5.66952 4 3.99805 5.67147 3.99805 7.73333V16.2667C3.99805 18.3285 5.66952 20 7.73138 20H14.398ZM15.4554 7.94549C15.7801 7.64581 16.2862 7.66606 16.5859 7.99071L19.7859 11.4574C20.0688 11.7638 20.0688 12.2362 19.7859 12.5426L16.5859 16.0093C16.2862 16.334 15.7801 16.3542 15.4554 16.0545C15.1308 15.7548 15.1105 15.2487 15.4102 14.924L17.3709 12.8H9.06471C8.62289 12.8 8.26471 12.4418 8.26471 12C8.26471 11.5582 8.62289 11.2 9.06471 11.2H17.3709L15.4102 9.07596C15.1105 8.75131 15.1308 8.24518 15.4554 7.94549Z" fill="#222222"/>
</svg>
