<svg width="24" height="24" viewBox="0 0 24 24" fill="none" xmlns="http://www.w3.org/2000/svg">
<path d="M16.2061 19.6211L16.1826 19.6523C15.8475 20.0364 15.2832 20.1027 14.8711 19.8252L14.7715 19.749L12.999 18.2021L13 21C13 21.5128 12.6135 21.9354 12.1162 21.9932L12 22C11.4872 22 11.0646 21.6136 11.0068 21.1162L11 21L10.999 18.2168L9.2627 19.75C8.84854 20.1153 8.2169 20.0753 7.85156 19.6611C7.48635 19.247 7.52542 18.6153 7.93945 18.25L10.999 15.5498V14.4131L16.2061 19.6211Z" fill="#222222"/>
<path d="M3.29297 3.29297C3.68349 2.90244 4.31651 2.90244 4.70703 3.29297L20.2217 18.8066C20.6119 19.1972 20.6121 19.8313 20.2217 20.2217C19.8313 20.6121 19.1972 20.6119 18.8066 20.2217L3.29297 4.70703C2.90244 4.31651 2.90244 3.68349 3.29297 3.29297Z" fill="#222222"/>
<path d="M9.58594 13H9.20996L6.50879 16.082C6.14475 16.4972 5.51295 16.5388 5.09766 16.1748C4.68248 15.8108 4.64091 15.179 5.00488 14.7637L6.54883 13H3C2.48716 13 2.0646 12.6135 2.00684 12.1162L2 12C2 11.4872 2.38645 11.0646 2.88379 11.0068L3 11H5.78516L4.24023 9.24902C3.87501 8.83484 3.91496 8.20319 4.3291 7.83789C4.3461 7.82291 4.36414 7.80952 4.38184 7.7959L9.58594 13Z" fill="#222222"/>
<path d="M18.249 7.92383C18.5854 7.541 19.1494 7.47693 19.5605 7.75586L19.6602 7.83203C20.0432 8.16842 20.1071 8.73332 19.8281 9.14453L19.751 9.24316L18.208 11H21C21.5128 11 21.9354 11.3865 21.9932 11.8838L22 12C22 12.5128 21.6136 12.9354 21.1162 12.9932L21 13H18.207L19.752 14.7637C20.0879 15.147 20.0781 15.7145 19.748 16.0859L19.6592 16.1748C19.6467 16.1857 19.6329 16.1949 19.6201 16.2051L14.4141 11H15.5469L18.249 7.92383Z" fill="#222222"/>
<path d="M12 2C12.5128 2 12.9354 2.38645 12.9932 2.88379L13 3L12.999 5.79785L14.7686 4.25391C15.1844 3.89061 15.8163 3.93283 16.1797 4.34863C16.543 4.7645 16.5007 5.3964 16.085 5.75977L12.999 8.4541V9.58398L7.7959 4.38184L7.83887 4.32715C8.17623 3.94494 8.74086 3.88207 9.15137 4.16211L9.25098 4.23926L10.999 5.7832L11 3C11 2.52668 11.3288 2.13008 11.7705 2.02637L11.8838 2.00684L12 2Z" fill="#222222"/>
</svg>
